<svg width="26" height="28" viewBox="0 0 26 28" fill="none" xmlns="http://www.w3.org/2000/svg">
<path d="M21.1864 4.27777H4.31234C3.56646 4.27777 2.85113 4.57043 2.32371 5.09136C1.7963 5.6123 1.5 6.31884 1.5 7.05555V23.7222C1.5 24.459 1.7963 25.1655 2.32371 25.6864C2.85113 26.2074 3.56646 26.5 4.31234 26.5H21.1864C21.9322 26.5 22.6476 26.2074 23.175 25.6864C23.7024 25.1655 23.9987 24.459 23.9987 23.7222V7.05555C23.9987 6.31884 23.7024 5.6123 23.175 5.09136C22.6476 4.57043 21.9322 4.27777 21.1864 4.27777Z" stroke="#001500" stroke-width="3" stroke-linecap="round" stroke-linejoin="round"/>
<path d="M18.3741 1.5V7.05556" stroke="#001500" stroke-width="3" stroke-linecap="round" stroke-linejoin="round"/>
<path d="M7.12469 1.5V7.05556" stroke="#001500" stroke-width="3" stroke-linecap="round" stroke-linejoin="round"/>
<path d="M1.5 12.6111H23.9987" stroke="#001500" stroke-width="3" stroke-linecap="round" stroke-linejoin="round"/>
<path d="M9.93722 18.1666H7.12488V20.9444H9.93722V18.1666Z" stroke="#001500" stroke-width="3" stroke-linecap="round" stroke-linejoin="round"/>
</svg>
