<svg width="24" height="23" viewBox="0 0 24 23" fill="none" xmlns="http://www.w3.org/2000/svg">
<path d="M2 17.0577H3.11111" stroke="#2B7AC4" stroke-width="3" stroke-linecap="round" stroke-linejoin="round"/>
<path d="M20.8889 17.0577H22" stroke="#2B7AC4" stroke-width="3" stroke-linecap="round" stroke-linejoin="round"/>
<path d="M4.88885 9.94668L5.66663 10.7245" stroke="#2B7AC4" stroke-width="3" stroke-linecap="round" stroke-linejoin="round"/>
<path d="M19.1112 9.94668L18.3334 10.7245" stroke="#2B7AC4" stroke-width="3" stroke-linecap="round" stroke-linejoin="round"/>
<path d="M2 21.5H22" stroke="#2B7AC4" stroke-width="3" stroke-linecap="round" stroke-linejoin="round"/>
<path d="M12 8.16667V1.5" stroke="#2B7AC4" stroke-width="3" stroke-linecap="round" stroke-linejoin="round"/>
<path d="M8.66663 4.83333L12 8.16666L15.3333 4.83333" stroke="#2B7AC4" stroke-width="3" stroke-linecap="round" stroke-linejoin="round"/>
<path d="M7.55554 17.0578C7.55554 15.8791 8.02379 14.7486 8.85729 13.9151C9.69078 13.0816 10.8212 12.6134 12 12.6134C13.1787 12.6134 14.3092 13.0816 15.1427 13.9151C15.9762 14.7486 16.4444 15.8791 16.4444 17.0578H7.55554ZM7.55554 17.0578C7.55554 15.8791 8.02379 14.7486 8.85729 13.9151C9.69078 13.0816 10.8212 12.6134 12 12.6134M7.55554 17.0578C7.55554 15.8791 8.02379 14.7486 8.85729 13.9151C9.69078 13.0816 10.8212 12.6134 12 12.6134M7.55554 17.0578C7.55554 15.8791 8.02379 14.7486 8.85729 13.9151C9.69078 13.0816 10.8212 12.6134 12 12.6134M7.55554 17.0578C7.55554 15.8791 8.02379 14.7486 8.85729 13.9151C9.69078 13.0816 10.8212 12.6134 12 12.6134" stroke="#2B7AC4" stroke-width="3" stroke-linecap="round" stroke-linejoin="round"/>
</svg>
