<svg width="127" height="19" viewBox="0 0 127 19" fill="none" xmlns="http://www.w3.org/2000/svg">
<path d="M8.60156 0.9375V18H4.58203V0.9375H8.60156ZM12.7383 0.9375V4.11328H0.5625V0.9375H12.7383ZM14.4844 0.9375H20.3203C21.4609 0.9375 22.4492 1.13281 23.2852 1.52344C24.1211 1.91406 24.7617 2.49219 25.207 3.25781C25.6602 4.02344 25.8867 4.96875 25.8867 6.09375C25.8867 7.07031 25.7617 7.88672 25.5117 8.54297C25.2695 9.19922 24.9258 9.74219 24.4805 10.1719C24.0352 10.5938 23.5117 10.9414 22.9102 11.2148L21.6094 11.9766H17.0273L17.0039 8.80078H20.2266C20.5938 8.80078 20.8984 8.70703 21.1406 8.51953C21.3828 8.33203 21.5625 8.06641 21.6797 7.72266C21.8047 7.37109 21.8672 6.95312 21.8672 6.46875C21.8672 5.97656 21.8086 5.55469 21.6914 5.20312C21.5742 4.85156 21.4023 4.58203 21.1758 4.39453C20.957 4.20703 20.6719 4.11328 20.3203 4.11328H18.4922V18H14.4844V0.9375ZM22.043 18L19.0195 10.4531L23.2617 10.4297L26.3438 17.8242V18H22.043ZM34.5352 4.52344L31.3594 18H27.0469L32.3086 0.9375H35.0039L34.5352 4.52344ZM37.0195 18L33.8438 4.52344L33.3164 0.9375H36.0586L41.332 18H37.0195ZM37.1484 11.6367V14.8125H29.7539V11.6367H37.1484ZM50.3086 12.2227H54.3164C54.3242 13.5039 54.0742 14.5977 53.5664 15.5039C53.0664 16.4023 52.3594 17.082 51.4453 17.543C50.5312 18.0039 49.4609 18.2344 48.2344 18.2344C47.2422 18.2344 46.3633 18.0625 45.5977 17.7188C44.832 17.375 44.1875 16.875 43.6641 16.2188C43.1406 15.5625 42.7461 14.7695 42.4805 13.8398C42.2148 12.9023 42.082 11.8398 42.082 10.6523V8.27344C42.082 7.09375 42.2227 6.03516 42.5039 5.09766C42.793 4.16016 43.1992 3.36328 43.7227 2.70703C44.2539 2.05078 44.8945 1.55078 45.6445 1.20703C46.4023 0.863281 47.2461 0.691406 48.1758 0.691406C49.4805 0.691406 50.582 0.9375 51.4805 1.42969C52.3867 1.91406 53.082 2.61719 53.5664 3.53906C54.0508 4.45312 54.3086 5.55078 54.3398 6.83203H50.332C50.3711 6.08984 50.3242 5.50781 50.1914 5.08594C50.0586 4.65625 49.8242 4.35547 49.4883 4.18359C49.1602 4.00391 48.7227 3.91406 48.1758 3.91406C47.8008 3.91406 47.4844 3.98828 47.2266 4.13672C46.9688 4.28516 46.7617 4.53125 46.6055 4.875C46.4492 5.21094 46.3359 5.65625 46.2656 6.21094C46.1953 6.76562 46.1602 7.44531 46.1602 8.25V10.6523C46.1602 11.4727 46.1875 12.1602 46.2422 12.7148C46.2969 13.2695 46.3984 13.7188 46.5469 14.0625C46.7031 14.3984 46.9141 14.6406 47.1797 14.7891C47.4531 14.9375 47.8047 15.0117 48.2344 15.0117C48.6875 15.0117 49.0742 14.9375 49.3945 14.7891C49.7148 14.6328 49.957 14.3555 50.1211 13.957C50.2852 13.5508 50.3477 12.9727 50.3086 12.2227ZM60.1055 0.9375V18H56.0977V0.9375H60.1055ZM68.5664 0.9375L63.1758 9.58594L59.8594 13.8164L59.0977 10.043L61.0898 6.29297L63.6328 0.9375H68.5664ZM63.7383 18L60.6211 10.3125L63.75 7.95703L68.4727 18H63.7383ZM79.0195 0.9375V18H75.0117V0.9375H79.0195ZM84.2578 8.03906V11.2031H77.9297V8.03906H84.2578ZM84.7383 0.9375V4.11328H77.9297V0.9375H84.7383ZM98.8242 8.19141V10.7695C98.8242 11.9961 98.6719 13.0742 98.3672 14.0039C98.0625 14.9336 97.6289 15.7148 97.0664 16.3477C96.5039 16.9727 95.8359 17.4453 95.0625 17.7656C94.2969 18.0781 93.4453 18.2344 92.5078 18.2344C91.5625 18.2344 90.7031 18.0781 89.9297 17.7656C89.1562 17.4453 88.4883 16.9727 87.9258 16.3477C87.3633 15.7148 86.9297 14.9336 86.625 14.0039C86.3203 13.0742 86.168 11.9961 86.168 10.7695V8.19141C86.168 6.96484 86.3203 5.88281 86.625 4.94531C86.9297 4.00781 87.3594 3.22656 87.9141 2.60156C88.4766 1.97656 89.1445 1.50391 89.918 1.18359C90.6914 0.863281 91.5508 0.703125 92.4961 0.703125C93.4336 0.703125 94.2891 0.863281 95.0625 1.18359C95.8438 1.50391 96.5117 1.97656 97.0664 2.60156C97.6211 3.22656 98.0508 4.00781 98.3555 4.94531C98.668 5.88281 98.8242 6.96484 98.8242 8.19141ZM94.7578 10.7695V8.16797C94.7578 7.40234 94.7109 6.75 94.6172 6.21094C94.5234 5.67188 94.3828 5.23438 94.1953 4.89844C94.0078 4.5625 93.7734 4.31641 93.4922 4.16016C93.2109 4.00391 92.8789 3.92578 92.4961 3.92578C92.0977 3.92578 91.7578 4.00391 91.4766 4.16016C91.1953 4.31641 90.9609 4.5625 90.7734 4.89844C90.5938 5.23438 90.4609 5.67188 90.375 6.21094C90.2891 6.75 90.2461 7.40234 90.2461 8.16797V10.7695C90.2461 11.5273 90.2891 12.1758 90.375 12.7148C90.4609 13.2461 90.5938 13.6836 90.7734 14.0273C90.9609 14.3711 91.1992 14.625 91.4883 14.7891C91.7773 14.9453 92.1172 15.0234 92.5078 15.0234C92.8828 15.0234 93.2109 14.9453 93.4922 14.7891C93.7812 14.625 94.0156 14.3711 94.1953 14.0273C94.3828 13.6836 94.5234 13.2461 94.6172 12.7148C94.7109 12.1758 94.7578 11.5273 94.7578 10.7695ZM113.309 8.19141V10.7695C113.309 11.9961 113.156 13.0742 112.852 14.0039C112.547 14.9336 112.113 15.7148 111.551 16.3477C110.988 16.9727 110.32 17.4453 109.547 17.7656C108.781 18.0781 107.93 18.2344 106.992 18.2344C106.047 18.2344 105.188 18.0781 104.414 17.7656C103.641 17.4453 102.973 16.9727 102.41 16.3477C101.848 15.7148 101.414 14.9336 101.109 14.0039C100.805 13.0742 100.652 11.9961 100.652 10.7695V8.19141C100.652 6.96484 100.805 5.88281 101.109 4.94531C101.414 4.00781 101.844 3.22656 102.398 2.60156C102.961 1.97656 103.629 1.50391 104.402 1.18359C105.176 0.863281 106.035 0.703125 106.98 0.703125C107.918 0.703125 108.773 0.863281 109.547 1.18359C110.328 1.50391 110.996 1.97656 111.551 2.60156C112.105 3.22656 112.535 4.00781 112.84 4.94531C113.152 5.88281 113.309 6.96484 113.309 8.19141ZM109.242 10.7695V8.16797C109.242 7.40234 109.195 6.75 109.102 6.21094C109.008 5.67188 108.867 5.23438 108.68 4.89844C108.492 4.5625 108.258 4.31641 107.977 4.16016C107.695 4.00391 107.363 3.92578 106.98 3.92578C106.582 3.92578 106.242 4.00391 105.961 4.16016C105.68 4.31641 105.445 4.5625 105.258 4.89844C105.078 5.23438 104.945 5.67188 104.859 6.21094C104.773 6.75 104.73 7.40234 104.73 8.16797V10.7695C104.73 11.5273 104.773 12.1758 104.859 12.7148C104.945 13.2461 105.078 13.6836 105.258 14.0273C105.445 14.3711 105.684 14.625 105.973 14.7891C106.262 14.9453 106.602 15.0234 106.992 15.0234C107.367 15.0234 107.695 14.9453 107.977 14.7891C108.266 14.625 108.5 14.3711 108.68 14.0273C108.867 13.6836 109.008 13.2461 109.102 12.7148C109.195 12.1758 109.242 11.5273 109.242 10.7695ZM120.188 18H117.059L117.082 14.8359H120.188C120.773 14.8359 121.25 14.707 121.617 14.4492C121.992 14.1914 122.27 13.7656 122.449 13.1719C122.629 12.5703 122.719 11.7695 122.719 10.7695V8.15625C122.719 7.40625 122.668 6.77344 122.566 6.25781C122.473 5.74219 122.324 5.32812 122.121 5.01562C121.918 4.70312 121.648 4.47656 121.312 4.33594C120.977 4.1875 120.578 4.11328 120.117 4.11328H117V0.9375H120.117C121.117 0.9375 122.023 1.10156 122.836 1.42969C123.656 1.75 124.363 2.22656 124.957 2.85938C125.551 3.48437 126.008 4.24219 126.328 5.13281C126.648 6.02344 126.809 7.03906 126.809 8.17969V10.7695C126.809 11.9023 126.648 12.918 126.328 13.8164C126.008 14.707 125.551 15.4648 124.957 16.0898C124.371 16.7148 123.672 17.1914 122.859 17.5195C122.055 17.8398 121.164 18 120.188 18ZM119.402 0.9375V18H115.395V0.9375H119.402Z" fill="#54AC5A"/>
</svg>
