<svg width="24" height="23" viewBox="0 0 24 23" fill="none" xmlns="http://www.w3.org/2000/svg">
<path d="M12 15.9445C13.1787 15.9445 14.3092 15.4762 15.1427 14.6427C15.9762 13.8092 16.4444 12.6787 16.4444 11.5C16.4444 10.3213 15.9762 9.19081 15.1427 8.35731C14.3092 7.52382 13.1787 7.05556 12 7.05556C10.8212 7.05556 9.69078 7.52382 8.85729 8.35731C8.02379 9.19081 7.55554 10.3213 7.55554 11.5C7.55554 12.6787 8.02379 13.8092 8.85729 14.6427C9.69078 15.4762 10.8212 15.9445 12 15.9445Z" stroke="#3F972E" stroke-width="3" stroke-linecap="round" stroke-linejoin="round"/>
<path d="M5.66667 17.8333L4.88889 18.6111M2 11.5H3.11111M12 1.5V2.61111M20.8889 11.5H22M12 20.3889V21.5M4.88889 4.38889L5.66667 5.16667M19.1111 4.38889L18.3333 5.16667M18.3333 17.8333L19.1111 18.6111" stroke="#3F972E" stroke-width="3" stroke-linecap="round" stroke-linejoin="round"/>
</svg>
