<svg width="26" height="28" viewBox="0 0 26 28" fill="none" xmlns="http://www.w3.org/2000/svg">
<path d="M10.4375 4.27778C10.4375 3.54107 10.7338 2.83453 11.2613 2.31359C11.7887 1.79266 12.5041 1.5 13.25 1.5C13.9959 1.5 14.7113 1.79266 15.2387 2.31359C15.7662 2.83453 16.0625 3.54107 16.0625 4.27778C17.6774 5.03198 19.0542 6.20601 20.0451 7.67403C21.036 9.14205 21.6037 10.8487 21.6875 12.6111V16.7778C21.7933 17.6413 22.103 18.4681 22.5915 19.1918C23.08 19.9155 23.7337 20.5159 24.5 20.9445H2C2.76632 20.5159 3.42004 19.9155 3.90854 19.1918C4.39704 18.4681 4.70667 17.6413 4.8125 16.7778V12.6111C4.89626 10.8487 5.46402 9.14205 6.45493 7.67403C7.44584 6.20601 8.82255 5.03198 10.4375 4.27778Z" stroke="#001500" stroke-width="3" stroke-linecap="round" stroke-linejoin="round"/>
<path d="M9.0311 20.9445V22.3333C9.0311 23.4384 9.47557 24.4982 10.2667 25.2796C11.0579 26.061 12.131 26.5 13.2498 26.5C14.3687 26.5 15.4418 26.061 16.233 25.2796C17.0241 24.4982 17.4686 23.4384 17.4686 22.3333V20.9445" stroke="#001500" stroke-width="3" stroke-linecap="round" stroke-linejoin="round"/>
</svg>
