<svg width="22" height="22" viewBox="0 0 22 22" fill="none" xmlns="http://www.w3.org/2000/svg">
<path d="M9 16C9.91925 16 10.8295 15.8189 11.6788 15.4672C12.5281 15.1154 13.2997 14.5998 13.9497 13.9497C14.5998 13.2997 15.1154 12.5281 15.4672 11.6788C15.8189 10.8295 16 9.91925 16 9C16 8.08075 15.8189 7.17049 15.4672 6.32122C15.1154 5.47194 14.5998 4.70026 13.9497 4.05025C13.2997 3.40024 12.5281 2.88463 11.6788 2.53284C10.8295 2.18106 9.91925 2 9 2C7.14348 2 5.36301 2.7375 4.05025 4.05025C2.7375 5.36301 2 7.14348 2 9C2 10.8565 2.7375 12.637 4.05025 13.9497C5.36301 15.2625 7.14348 16 9 16Z" stroke="#3A4F3A" stroke-width="3" stroke-linecap="round" stroke-linejoin="round"/>
<path d="M20 20L14 14" stroke="#3A4F3A" stroke-width="3" stroke-linecap="round" stroke-linejoin="round"/>
</svg>
