<svg width="24" height="23" viewBox="0 0 24 23" fill="none" xmlns="http://www.w3.org/2000/svg">
<path d="M13.9607 7.20538L16.1019 5.11997C15.8486 4.87341 15.6616 4.56984 15.5575 4.23613C15.4535 3.90242 15.4356 3.54889 15.5055 3.20685C15.5754 2.86481 15.7308 2.54483 15.9581 2.27525C16.1854 2.00568 16.4774 1.79483 16.8084 1.66138C17.1394 1.52794 17.4991 1.47602 17.8556 1.51023C18.2121 1.54444 18.5545 1.66371 18.8523 1.8575C19.1502 2.05128 19.3943 2.31358 19.5632 2.62116C19.732 2.92875 19.8203 3.27212 19.8202 3.62085C20.1785 3.6206 20.5313 3.70639 20.8474 3.87062C21.1635 4.03484 21.4331 4.27244 21.6323 4.56234C21.8315 4.85224 21.9542 5.1855 21.9894 5.53259C22.0247 5.87967 21.9714 6.22987 21.8344 6.55213C21.6974 6.8744 21.4808 7.15879 21.2039 7.3801C20.927 7.60141 20.5982 7.7528 20.2468 7.82087C19.8954 7.88894 19.5322 7.87157 19.1893 7.77031C18.8465 7.66905 18.5346 7.48702 18.2812 7.24036L16.299 9.17098" stroke="#D1348B" stroke-width="3" stroke-linecap="round" stroke-linejoin="round"/>
<path d="M5.55594 18.0385C8.5336 20.936 11.9818 22.2793 13.2582 21.0368C14.5336 19.7953 13.1548 16.4387 10.1771 13.5401C7.19943 10.6415 3.75126 9.2993 2.47589 10.5419C1.19944 11.7833 2.57936 15.1399 5.55594 18.0375V18.0385Z" stroke="#D1348B" stroke-width="3" stroke-linecap="round" stroke-linejoin="round"/>
<path d="M7.29523 15.283L8.38435 16.3432" stroke="#D1348B" stroke-width="3" stroke-linecap="round" stroke-linejoin="round"/>
<path d="M13.2582 21.0357C17.5112 16.8945 18.5459 11.1885 15.5682 8.29102C12.5916 5.39244 6.72996 6.39963 2.47693 10.5386" stroke="#D1348B" stroke-width="3" stroke-linecap="round" stroke-linejoin="round"/>
</svg>
