<svg width="29" height="28" viewBox="0 0 29 28" fill="none" xmlns="http://www.w3.org/2000/svg">
<path d="M14.4987 26.5C16.1402 26.5 17.7657 26.1767 19.2823 25.5485C20.7988 24.9203 22.1768 23.9996 23.3376 22.8388C24.4983 21.6781 25.419 20.3001 26.0472 18.7835C26.6754 17.267 26.9987 15.6415 26.9987 14C26.9987 12.3585 26.6754 10.733 26.0472 9.21646C25.419 7.69989 24.4983 6.3219 23.3376 5.16116C22.1768 4.00043 20.7988 3.07969 19.2823 2.45151C17.7657 1.82332 16.1402 1.5 14.4987 1.5C11.1835 1.5 8.00409 2.81696 5.65988 5.16116C3.31568 7.50537 1.99872 10.6848 1.99872 14C1.99872 17.3152 3.31568 20.4946 5.65988 22.8388C8.00409 25.183 11.1835 26.5 14.4987 26.5Z" stroke="#001500" stroke-width="3" stroke-linecap="round" stroke-linejoin="round"/>
<path d="M14.4987 15.3889C15.6038 15.3889 16.6636 14.9499 17.445 14.1685C18.2264 13.3871 18.6654 12.3273 18.6654 11.2222C18.6654 10.1171 18.2264 9.05733 17.445 8.27593C16.6636 7.49453 15.6038 7.05554 14.4987 7.05554C13.3936 7.05554 12.3338 7.49453 11.5524 8.27593C10.771 9.05733 10.332 10.1171 10.332 11.2222C10.332 12.3273 10.771 13.3871 11.5524 14.1685C12.3338 14.9499 13.3936 15.3889 14.4987 15.3889Z" stroke="#001500" stroke-width="3" stroke-linecap="round" stroke-linejoin="round"/>
<path d="M6.39874 23.5125C6.74251 22.3684 7.44592 21.3655 8.40464 20.6527C9.36336 19.9399 10.5263 19.5552 11.721 19.5555H17.2765C18.4727 19.5551 19.6371 19.9408 20.5965 20.6552C21.5559 21.3697 22.2591 22.3747 22.6015 23.5208" stroke="#001500" stroke-width="3" stroke-linecap="round" stroke-linejoin="round"/>
</svg>
