<svg width="24" height="24" viewBox="0 0 24 24" fill="none" xmlns="http://www.w3.org/2000/svg">
<path d="M6.44458 22H17.5557" stroke="#3A4F3A" stroke-width="3" stroke-linecap="round" stroke-linejoin="round"/>
<path d="M5.33325 5.5295L11.9999 4.35303L18.6666 5.5295" stroke="#3A4F3A" stroke-width="3" stroke-linecap="round" stroke-linejoin="round"/>
<path d="M12 2V22" stroke="#3A4F3A" stroke-width="3" stroke-linecap="round" stroke-linejoin="round"/>
<path d="M8.66667 12.5882L5.33333 5.52942L2 12.5882C2 13.5243 2.35119 14.422 2.97631 15.0839C3.60143 15.7458 4.44928 16.1176 5.33333 16.1176C6.21739 16.1176 7.06523 15.7458 7.69036 15.0839C8.31548 14.422 8.66667 13.5243 8.66667 12.5882Z" stroke="#3A4F3A" stroke-width="3" stroke-linecap="round" stroke-linejoin="round"/>
<path d="M21.9999 12.5882L18.6666 5.52942L15.3333 12.5882C15.3333 13.5243 15.6844 14.422 16.3096 15.0839C16.9347 15.7458 17.7825 16.1176 18.6666 16.1176C19.5506 16.1176 20.3985 15.7458 21.0236 15.0839C21.6487 14.422 21.9999 13.5243 21.9999 12.5882Z" stroke="#3A4F3A" stroke-width="3" stroke-linecap="round" stroke-linejoin="round"/>
</svg>
